<svg width="128" height="128" viewBox="0 0 128 128" fill="none" xmlns="http://www.w3.org/2000/svg">
<rect width="128" height="128" rx="20" fill="#D9D9D9"/>
<mask id="path-2-outside-1_9_72" maskUnits="userSpaceOnUse" x="14.0818" y="7.37932" width="100" height="114" fill="black">
<rect fill="white" x="14.0818" y="7.37932" width="100" height="114"/>
<path d="M64.4998 11.3793C70.9082 11.3793 76.5489 20.7625 79.8376 34.9877C93.4537 29.716 104.386 29.1111 107.987 34.4125C111.939 40.2314 106.019 51.6364 94.0193 63.5199C106.357 75.0525 112.603 86.2827 108.821 92.2133C105.319 97.7039 94.0732 97.3166 79.9968 92.2104C76.7327 106.824 71.012 116.514 64.4998 116.514C58.0913 116.514 52.4505 107.129 49.1619 92.9037C35.5458 98.1755 24.614 98.7814 21.0134 93.4799C17.0616 87.661 22.98 76.2552 34.9802 64.3715C22.6427 52.8391 16.3972 41.6095 20.1794 35.6791C23.6812 30.1887 34.9268 30.5752 49.0027 35.6811C52.2668 21.0682 57.9878 11.3798 64.4998 11.3793Z"/>
</mask>
<path d="M64.4998 11.3793C70.9082 11.3793 76.5489 20.7625 79.8376 34.9877C93.4537 29.716 104.386 29.1111 107.987 34.4125C111.939 40.2314 106.019 51.6364 94.0193 63.5199C106.357 75.0525 112.603 86.2827 108.821 92.2133C105.319 97.7039 94.0732 97.3166 79.9968 92.2104C76.7327 106.824 71.012 116.514 64.4998 116.514C58.0913 116.514 52.4505 107.129 49.1619 92.9037C35.5458 98.1755 24.614 98.7814 21.0134 93.4799C17.0616 87.661 22.98 76.2552 34.9802 64.3715C22.6427 52.8391 16.3972 41.6095 20.1794 35.6791C23.6812 30.1887 34.9268 30.5752 49.0027 35.6811C52.2668 21.0682 57.9878 11.3798 64.4998 11.3793Z" fill="white"/>
<path d="M64.4998 11.3793V7.37932H64.4995L64.4998 11.3793ZM79.8376 34.9877L75.9404 35.8887L76.9796 40.3836L81.2819 38.7179L79.8376 34.9877ZM107.987 34.4125L111.296 32.1652L111.296 32.1651L107.987 34.4125ZM94.0193 63.5199L91.2047 60.6778L88.2506 63.6032L91.2878 66.4421L94.0193 63.5199ZM108.821 92.2133L112.194 94.3642L112.194 94.364L108.821 92.2133ZM79.9968 92.2104L81.3609 88.4501L77.0846 86.8989L76.093 91.3384L79.9968 92.2104ZM64.4998 116.514L64.4995 120.514H64.4998V116.514ZM49.1619 92.9037L53.0591 92.0028L52.02 87.5078L47.7176 89.1736L49.1619 92.9037ZM21.0134 93.4799L17.7044 95.7272L17.7044 95.7273L21.0134 93.4799ZM34.9802 64.3715L37.7948 67.2137L40.7489 64.2883L37.7117 61.4493L34.9802 64.3715ZM20.1794 35.6791L16.807 33.5282L16.807 33.5282L20.1794 35.6791ZM49.0027 35.6811L47.6387 39.4413L51.9148 40.9925L52.9065 36.5531L49.0027 35.6811ZM64.4998 11.3793V15.3793C65.6071 15.3793 67.572 16.2348 69.9632 19.9954C72.2521 23.595 74.3518 29.0173 75.9404 35.8887L79.8376 34.9877L83.7348 34.0867C82.0347 26.733 79.6697 20.3511 76.714 15.7027C73.8606 11.2154 69.8008 7.37932 64.4998 7.37932V11.3793ZM79.8376 34.9877L81.2819 38.7179C87.859 36.1714 93.5247 34.8621 97.7889 34.7333C102.244 34.5988 104.056 35.7437 104.678 36.6599L107.987 34.4125L111.296 32.1651C108.318 27.7799 102.863 26.5765 97.5474 26.737C92.041 26.9033 85.4324 28.5323 78.3934 31.2575L79.8376 34.9877ZM107.987 34.4125L104.678 36.6598C105.371 37.6796 105.74 40.1519 103.394 44.9293C101.176 49.4482 97.0269 54.9121 91.2047 60.6778L94.0193 63.5199L96.8339 66.3621C103.012 60.2443 107.822 54.0639 110.576 48.4546C113.202 43.104 114.555 36.9643 111.296 32.1652L107.987 34.4125ZM94.0193 63.5199L91.2878 66.4421C97.274 72.0375 101.579 77.3796 103.927 81.8328C106.409 86.5408 106.111 89.0231 105.448 90.0626L108.821 92.2133L112.194 94.364C115.313 89.4729 113.783 83.3748 111.004 78.1019C108.089 72.5742 103.103 66.535 96.7507 60.5978L94.0193 63.5199ZM108.821 92.2133L105.449 90.0624C104.842 91.0132 103.009 92.2306 98.4133 92.1859C94.0236 92.1431 88.1662 90.9188 81.3609 88.4501L79.9968 92.2104L78.6328 95.9706C85.9039 98.6082 92.7076 100.131 98.3354 100.185C103.757 100.238 109.298 98.9041 112.194 94.3642L108.821 92.2133ZM79.9968 92.2104L76.093 91.3384C74.515 98.4035 72.3975 104 70.0731 107.724C67.6395 111.623 65.6274 112.514 64.4998 112.514V116.514V120.514C69.8844 120.514 73.9887 116.56 76.8596 111.96C79.8396 107.186 82.2146 100.631 83.9006 93.0823L79.9968 92.2104ZM64.4998 116.514L64.5 112.514C63.3927 112.514 61.4277 111.658 59.0363 107.897C56.7474 104.297 54.6477 98.8745 53.0591 92.0028L49.1619 92.9037L45.2646 93.8047C46.9647 101.159 49.3297 107.541 52.2854 112.19C55.1387 116.677 59.1984 120.514 64.4995 120.514L64.4998 116.514ZM49.1619 92.9037L47.7176 89.1736C41.1404 91.7201 35.4748 93.0296 31.2109 93.1586C26.7563 93.2933 24.9446 92.1486 24.3224 91.2325L21.0134 93.4799L17.7044 95.7273C20.6829 100.113 26.1374 101.316 31.4528 101.155C36.9589 100.988 43.5673 99.3591 50.6061 96.6339L49.1619 92.9037ZM21.0134 93.4799L24.3225 91.2326C23.6298 90.2126 23.2607 87.74 25.6056 82.9624C27.8236 78.4434 31.9726 72.9793 37.7948 67.2137L34.9802 64.3715L32.1656 61.5293C25.9876 67.6473 21.1773 73.828 18.424 79.4375C15.7976 84.7885 14.4453 90.9282 17.7044 95.7272L21.0134 93.4799ZM34.9802 64.3715L37.7117 61.4493C31.7258 55.8541 27.4209 50.5121 25.0733 46.0592C22.5914 41.3514 22.889 38.8694 23.5519 37.83L20.1794 35.6791L16.807 33.5282C13.6876 38.4192 15.2168 44.5173 17.9965 49.79C20.9106 55.3175 25.8972 61.3565 32.2487 67.2937L34.9802 64.3715ZM20.1794 35.6791L23.5519 37.83C24.1583 36.8792 25.9914 35.6617 30.587 35.7063C34.9765 35.7488 40.8337 36.9729 47.6387 39.4413L49.0027 35.6811L50.3667 31.9208C43.0958 29.2834 36.2922 27.7612 30.6645 27.7067C25.2429 27.6541 19.7023 28.9886 16.807 33.5282L20.1794 35.6791ZM49.0027 35.6811L52.9065 36.5531C54.4845 29.4885 56.602 23.8923 58.9264 20.1687C61.3599 16.2704 63.3721 15.3794 64.5 15.3793L64.4998 11.3793L64.4995 7.37932C59.1155 7.3797 55.0112 11.3332 52.1401 15.9324C49.16 20.7064 46.785 27.2608 45.0989 34.8091L49.0027 35.6811Z" fill="#7B7B7B" mask="url(#path-2-outside-1_9_72)"/>
<path d="M64.5006 13.0905C66.2169 13.0907 68.1366 14.0811 70.151 16.5182C72.1549 18.9427 74.0492 22.5719 75.6783 27.2321C78.9301 36.5338 80.9781 49.514 80.9781 63.946C80.9781 78.3782 78.9301 91.359 75.6783 100.661C74.0492 105.321 72.1549 108.95 70.151 111.375C68.1367 113.812 66.2169 114.802 64.5006 114.802C62.7842 114.802 60.8638 113.812 58.8492 111.375C56.8453 108.95 54.9511 105.321 53.3219 100.661C50.0701 91.359 48.0221 78.3782 48.0221 63.946C48.0221 49.514 50.0702 36.5338 53.3219 27.2321C54.9511 22.5719 56.8453 18.9427 58.8492 16.5182C60.8638 14.0809 62.7842 13.0905 64.5006 13.0905Z" fill="#FF0004" fill-opacity="0.65" stroke="white" stroke-width="4"/>
<path d="M106.571 35.3748C107.535 36.7948 107.794 38.9393 106.91 41.9749C106.03 44.9948 104.092 48.6008 101.152 52.5667C95.2842 60.4826 85.6969 69.4695 73.7579 77.5777C61.8187 85.686 49.9296 91.2847 40.4077 93.8206C35.6373 95.091 31.5707 95.5629 28.4392 95.2673C25.2915 94.9701 23.3934 93.9385 22.4291 92.5187C21.4647 91.0988 21.2052 88.9537 22.0896 85.9178C22.9694 82.898 24.9075 79.2919 27.8474 75.326C33.7154 67.41 43.3033 58.4229 55.2425 50.3145C67.1815 42.2063 79.0701 36.6081 88.5919 34.0722C93.3624 32.8017 97.4289 32.3298 100.56 32.6254C103.709 32.9227 105.607 33.9549 106.571 35.3748Z" fill="#FFC800" fill-opacity="0.65" stroke="white" stroke-width="4"/>
<path d="M107.377 91.2934C106.454 92.7404 104.587 93.8263 101.449 94.2142C98.327 94.6 94.2485 94.2455 89.4434 93.1132C79.8525 90.853 67.8074 85.5999 55.6395 77.8394C43.4714 70.0787 33.6283 61.3718 27.5345 53.6283C24.4815 49.7488 22.4402 46.2002 21.4736 43.207C20.5021 40.1982 20.6993 38.0469 21.622 36.5998C22.545 35.1527 24.4128 34.0662 27.5509 33.6783C30.6726 33.2924 34.7511 33.6469 39.5562 34.7792C49.1473 37.0394 61.1929 42.2929 73.361 50.0536C85.5288 57.8141 95.3713 66.5207 101.465 74.2641C104.518 78.1436 106.559 81.6922 107.526 84.6855C108.498 87.6946 108.3 89.8463 107.377 91.2934Z" fill="#00CCFF" fill-opacity="0.65" stroke="white" stroke-width="4"/>
<circle cx="64.0412" cy="64.3542" r="6.42283" fill="#767676"/>
</svg>
